<svg id="Layer_1" data-name="Layer 1" xmlns="http://www.w3.org/2000/svg" viewBox="0 0 160.1 60"><defs><style>.cls-1{fill:white;}</style></defs><title>step-into-the-nhs-logo</title><path class="cls-1" d="M8,25.62a6.66,6.66,0,0,0-2.76-.72c-1.06,0-1.87.48-1.87,1.52,0,2.54,5.51,1.36,5.51,6.33C8.87,35.39,6.77,37,4,37a13.44,13.44,0,0,1-3.77-.58L.4,33.69a7.89,7.89,0,0,0,3.07.86c1,0,2-.52,2-1.66C5.51,30.18,0,31.51,0,26.52c0-.42.16-4,4.85-4A13.67,13.67,0,0,1,8.13,23Zm4.15,11.13h3.29V25.3h3V22.77H9.1V25.3h3Zm7.57,0H28V34.31H22.88V30.78h4.67V28.34H22.88V25.22h4.91V22.77H19.71Zm10,0v-14h4.47c3,0,4.79,1.42,4.79,4.45a4.08,4.08,0,0,1-4.39,4.43H33v5.1Zm3.17-7.55h1a1.75,1.75,0,0,0,1.76-2c0-1.38-.64-2-1.94-2h-.86Zm10.56,7.55h3.29v-14H43.47Zm5.45,0H51.8V26.64h0l4,10.11h3.88v-14H56.87v9.7h0l-4.07-9.7H48.92Zm15.11,0h3.28V25.3h3V22.77H61V25.3H64Zm6.49-7c0-4.1,1.9-7.23,5.93-7.23s6,3.13,6,7.23S80.47,37,76.45,37,70.52,33.87,70.52,29.76Zm3.36,0c0,2.69.66,4.87,2.57,4.87S79,32.45,79,29.76s-.68-4.86-2.58-4.86S73.88,27.08,73.88,29.76Zm15.39,7h3.29V25.3h3V22.77H86.23V25.3h3Zm14.27,0h3.28v-14h-3.28v5.57h-3.41V22.77H96.85v14h3.28V30.94h3.41Zm5.5,0h8.31V34.31h-5.14V30.78h4.66V28.34h-4.66V25.22h4.9V22.77H109ZM160.1,0V23a12.48,12.48,0,0,0-3-.42c-4.69,0-4.85,3.57-4.85,4,0,5,5.51,3.66,5.51,6.37,0,1.14-1,1.66-2,1.66a7.89,7.89,0,0,1-3.07-.86l-.18,2.72a13.44,13.44,0,0,0,3.77.58,5.1,5.1,0,0,0,3.86-1.5V60l-38-13.81V13.81ZM138.63,22.77h-2.88v9.7h0l-4.07-9.7h-3.85v14h2.89V26.64h0l4,10.11h3.89Zm12.18,0h-3.29v5.57h-3.4V22.77h-3.29v14h3.29V30.94h3.4v5.81h3.29Zm4.81,3.65c0,1.84,2.89,1.73,4.48,3.42V25.55a6.57,6.57,0,0,0-2.62-.65C156.42,24.9,155.62,25.38,155.62,26.42Z"/></svg>
